<mxfile host="app.diagrams.net" modified="2023-11-08T05:37:55.693Z" agent="Mozilla/5.0 (Windows NT 10.0; Win64; x64) AppleWebKit/537.36 (KHTML, like Gecko) Chrome/119.0.0.0 Safari/537.36" version="22.0.8" etag="hJyMpz65iIgAgSDTTsPW" type="github">
  <diagram name="페이지-1" id="W6U_sYSgGevbPjzfl-gF">
    <mxGraphModel>
      <root>
        <mxCell id="0" />
        <mxCell id="1" parent="0" />
      </root>
    </mxGraphModel>
  </diagram>
</mxfile>
